<?xml version="1.0" encoding="UTF-8"?>
<svg id="Réteg_1" data-name="Réteg 1" xmlns="http://www.w3.org/2000/svg" viewBox="0 0 512 512">
  <defs>
    <style>
      .cls-1 {
        fill: #418e2b;
      }

      .cls-2 {
        fill: #d4a017;
      }

      .cls-3 {
        fill: #b22222;
      }

      .cls-4 {
        fill: #d7d7d7;
      }

      .cls-5 {
        fill: #fff;
      }

      .cls-6 {
        fill: #ccc;
      }

      .cls-7 {
        fill: #afafaf;
      }
    </style>
  </defs>
  <rect class="cls-5" width="512" height="512"/>
  <g>
    <path class="cls-3" d="M159.75,149.93h192.51c7.66,0,13.87,6.21,13.87,13.87v139.08c0,60.78-49.34,110.12-110.12,110.12h0c-60.78,0-110.12-49.34-110.12-110.12v-139.08c0-7.66,6.21-13.87,13.87-13.87Z"/>
    <g>
      <path class="cls-2" d="M158.11,122.85h195.77v18.22c0,8.27-6.71,14.98-14.98,14.98h-165.8c-8.27,0-14.98-6.71-14.98-14.98v-18.22h0Z"/>
      <rect class="cls-2" x="158.13" y="99" width="55.07" height="38.03" rx="15.05" ry="15.05"/>
      <rect class="cls-2" x="228.49" y="99" width="55.07" height="38.03" rx="15.05" ry="15.05"/>
      <rect class="cls-2" x="298.82" y="99" width="55.07" height="38.03" rx="15.05" ry="15.05"/>
    </g>
    <path class="cls-1" d="M349.27,361.42c-5.3,8.44-17.97,26.07-41.31,38.57-21.82,11.68-42.04,13.01-51.97,13.01-10.17-.03-32.81-1.45-56.44-15.55-20.12-12.01-31.49-27.55-36.83-36.04,14.93-8.39,47.46-24,91.51-24.4,46.06-.42,80.05,16.01,95.02,24.4h.01Z"/>
    <path class="cls-4" d="M185.04,210.56c-.42.32-.83.65-1.23,1.01-9.03,8.09-12.47,27.05-7.57,37.92,10.99,12.29,46.82-17.8,43.2-30.53-4.03-10.42-24.7-13.08-33.53-8.9l-.88.51h.01Z"/>
    <path class="cls-4" d="M171.58,218.77c1.34-2.74,11-8.36,13.16-6.76,0,2.31-4.71,8.71-6.79,9.98-1.91,1.14-5.92-.38-6.47-2.54l.09-.68Z"/>
    <path class="cls-4" d="M217.61,215.88c15.42,11.08,29.06,15.47,38.11,17.44,10.27,2.23,21.25,2.78,24.32,2.92,19.11.88,23.5-2.16,32.5,1.52,12,4.9,17.69,15.84,18.94,18.24,0,0,8.91,17.12-.59,38.7-.38.88-1.22,2.7-2.8,3.04-1.95.41-3.85-1.68-4.33-2.22-23.36-7.38-34.85-7.08-41.03-5.26-1.04.31-5.7,1.77-12.15,2.57-4.1.51-8.38,1.01-13.74.15-3-.47-7.56-1.56-12.68-4.37-11.77-3.47-23.54-6.94-35.31-10.4-2.42-4.34-4.21-8.07-5.49-10.87-1.64-3.6-2.41-5.69-3.04-7.95-.9-3.27-1.51-5.55-1.05-8.41.47-3.01,1.9-5.21,2.84-6.47,5.17-9.54,10.33-19.08,15.51-28.62h-.01Z"/>
    <path class="cls-6" d="M212.84,215.46c3.97-.12,8.18,5.33,9.77,8.82,5.23,11.42-28.03-1.34-10.62-8.64l.86-.18h-.01Z"/>
    <path class="cls-7" d="M207.94,276.56s-8.22,5.08-9.49,7.5-.56,4.41-.7,7.59c-.23,5.17.15,7.9.59,15.09.69,11.51.12,10.99.78,13.91.83,3.62,5.66,13.56,6.81,13.56s6.51-7.59,7.48-8.66c.97-1.05-4.98-5.3-7.48-7.95-.08-.46-.14-1.19.12-1.98.47-1.42,1.54-1.7,2.1-2.57,1.18-1.81-1.14-4.23-1.87-7.71-.67-3.19.08-6.89,1.87-9.35,3.77-5.17,11.76-4.28,12.28-4.21-2.32-1.43-5.78-3.98-8.77-8.18-1.84-2.57-2.98-5.06-3.71-7.04h0Z"/>
    <path class="cls-4" d="M244.15,288.62l-4.21,7.59c.15,1.51.2,3.28,0,5.26-.47,4.61-2.11,8.18-3.39,10.4.08,1.54.15,3.62.23,6.08.22,7.18.09,8.95-.82,10.87-.51,1.08-1.54,2.78-3.74,4.44.31.14,1.06.54,1.52,1.41.82,1.55-.05,3.15-.12,3.28.08.7.08,1.91-.59,3.04-1.17,1.97-3.88,2.96-6.77,2.34-2.69,0-5.8-.18-8.07,0s7.02-13.09,7.02-13.09c.69-1.41,1.63-3.65,2.1-6.54.46-2.82.22-4.65,0-9.12-.1-2.11-.22-5.26-.23-9.19-2.22-4.53-4.44-9.07-6.66-13.61-1.95-1.19-4.6-3.12-7.13-6.1-2.93-3.43-4.51-6.84-5.35-9.12l36.22,12.06h0Z"/>
    <path class="cls-4" d="M282.73,290.25c1.01.47,2.11,1.01,3.29,1.61,3.66,1.86,8.08,4.32,12.91,7.52,10.35,6.85,15.51,10.28,17.52,16.14,3.56,10.36-4.64,21.43-6.65,24.02-1.58,4.15-6.1,11.92-4.74,12.45,1.36.53,8.43,1.23,9.3,1.23s1.68-.91,2.46-2.28c1.28-2.24.49-4.55.35-4.9.82-.63,2.64-2.19,3.69-4.9,1.2-3.16-.04-5.72.35-6.9.4-1.17,6.28-7.84,6.66-9.94.4-2.1,0-18.35,0-20.86s-3.37-5.46-5.05-8.18c-8.54-4.6-22.41-10.04-36.86-6.02-1.1.31-2.18.67-3.21,1.05v-.03Z"/>
    <path class="cls-7" d="M286.02,291.86c.4,1.24,1.09,3.02,2.38,4.88,1.58,2.27,3.12,3.33,6.13,5.79,1.59,1.29,5.98,4.67,6.49,5.61s.03,3.79-.35,6.13c-.51,3.12-1.04,6.13-2.28,7.54s-1.49,5.9-3.85,9.64c-1.75,2.78-4.89,5.15-5.26,6.13-.37,1-3.73,5.51-2.63,5.92,1.1.4,11.22,1.97,11.22,1.97.1-.05,2.39-1.13,2.63-3.51.15-1.55-1.87-2.75-.87-2.98s3.24-3.07,4.21-6.66c.56-2.09-.85-2.69.35-5.08.35-.68.68-1.15.79-1.29,1.23-1.58,2.95-5.17,4.52-7.48,1.04-1.52,2.77-3.59,5.74-5.61-1.73-2.92-3.6-4.88-4.9-6.15-3.71-3.6-5.4-2.93-11.4-7.36-3.18-2.34-4.16-3.57-7.38-5.26-2.23-1.17-4.2-1.84-5.52-2.25l-.03.03Z"/>
  </g>
</svg>