<?xml version="1.0" encoding="UTF-8"?>
<svg id="Réteg_2" data-name="Réteg 2" xmlns="http://www.w3.org/2000/svg" viewBox="0 0 61.6 87.82">
  <defs>
    <style>
      .cls-1 {
        fill: #418e2b;
      }

      .cls-2 {
        fill: #d4a017;
      }

      .cls-3 {
        fill: #b22222;
      }

      .cls-4 {
        fill: #d7d7d7;
      }

      .cls-5 {
        fill: #ccc;
      }

      .cls-6 {
        fill: #afafaf;
      }
    </style>
  </defs>
  <g id="Réteg_1" data-name="Réteg 1">
    <path class="cls-3" d="M3.88,14.24h53.84c2.14,0,3.88,1.74,3.88,3.88v38.9c0,17-13.8,30.8-30.8,30.8h0C13.8,87.82,0,74.02,0,57.02V18.12C0,15.98,1.74,14.24,3.88,14.24Z"/>
    <path class="cls-2" d="M3.42,6.67h54.76v5.1c0,2.31-1.88,4.19-4.19,4.19H7.61c-2.31,0-4.19-1.88-4.19-4.19v-5.1h0Z"/>
    <rect class="cls-2" x="3.43" y="0" width="15.4" height="10.64" rx="4.21" ry="4.21"/>
    <rect class="cls-2" x="23.11" width="15.4" height="10.64" rx="4.21" ry="4.21"/>
    <rect class="cls-2" x="42.78" width="15.4" height="10.64" rx="4.21" ry="4.21"/>
    <path class="cls-1" d="M56.89,73.4c-1.48,2.36-5.02,7.29-11.55,10.79-6.1,3.27-11.76,3.64-14.53,3.64-2.84,0-9.18-.4-15.79-4.35-5.63-3.36-8.81-7.71-10.3-10.08,4.18-2.34,13.27-6.71,25.6-6.83,12.88-.12,22.39,4.48,26.58,6.83Z"/>
    <path class="cls-4" d="M10.95,31.2c-.12.09-.23.18-.34.28-2.52,2.26-3.49,7.57-2.12,10.6,3.07,3.44,13.09-4.98,12.08-8.54-1.13-2.92-6.91-3.66-9.38-2.49l-.25.14Z"/>
    <path class="cls-4" d="M7.19,33.5c.37-.77,3.08-2.34,3.68-1.89,0,.65-1.32,2.44-1.9,2.79-.53.32-1.65-.11-1.81-.71l.03-.19Z"/>
    <path class="cls-4" d="M20.06,32.69c4.31,3.1,8.13,4.33,10.66,4.88,2.87.62,5.94.78,6.8.82,5.34.25,6.57-.6,9.09.43,3.35,1.37,4.95,4.43,5.3,5.1,0,0,2.49,4.79-.16,10.82-.11.25-.34.76-.78.85-.54.11-1.08-.47-1.21-.62-6.53-2.06-9.75-1.98-11.48-1.47-.29.09-1.59.49-3.4.72-1.15.14-2.34.28-3.84.04-.84-.13-2.11-.44-3.55-1.22-3.29-.97-6.58-1.94-9.87-2.91-.68-1.21-1.18-2.26-1.54-3.04-.46-1.01-.67-1.59-.85-2.22-.25-.91-.42-1.55-.29-2.35.13-.84.53-1.46.8-1.81,1.45-2.67,2.89-5.34,4.34-8.01Z"/>
    <path class="cls-5" d="M18.73,32.57c1.11-.03,2.29,1.49,2.73,2.47,1.46,3.19-7.84-.38-2.97-2.42l.24-.05Z"/>
    <path class="cls-6" d="M17.36,49.66s-2.3,1.42-2.66,2.1-.16,1.23-.2,2.13c-.06,1.45.04,2.21.16,4.22.2,3.22.03,3.07.22,3.89.23,1.01,1.58,3.79,1.91,3.79s1.82-2.13,2.09-2.42-1.4-1.48-2.09-2.22c-.02-.13-.04-.33.03-.56.13-.4.43-.48.59-.72.33-.51-.32-1.18-.52-2.16-.19-.89.02-1.93.52-2.62,1.05-1.45,3.29-1.2,3.43-1.18-.65-.4-1.62-1.12-2.45-2.29-.51-.72-.84-1.42-1.04-1.97Z"/>
    <path class="cls-4" d="M27.49,53.03l-1.18,2.13c.04.42.06.92,0,1.47-.13,1.29-.59,2.29-.95,2.91.02.43.04,1.01.07,1.7.06,2.01.03,2.5-.23,3.04-.14.3-.43.78-1.05,1.24.08.04.3.15.43.39.23.43-.01.88-.03.92.02.2.02.53-.16.85-.32.55-1.09.83-1.9.65-.75,0-1.62-.05-2.26,0-.63.05,1.96-3.66,1.96-3.66.19-.39.46-1.02.59-1.83.13-.79.06-1.3,0-2.55-.03-.59-.06-1.47-.07-2.57-.62-1.27-1.24-2.54-1.86-3.81-.54-.33-1.28-.87-1.99-1.71-.82-.96-1.26-1.91-1.5-2.55"/>
    <path class="cls-4" d="M38.28,53.49c.28.13.59.28.92.45,1.02.52,2.26,1.21,3.61,2.1,2.89,1.92,4.34,2.87,4.9,4.51.99,2.9-1.3,5.99-1.86,6.72-.44,1.16-1.7,3.34-1.32,3.48s2.36.34,2.6.34.47-.25.69-.64c.36-.63.13-1.27.1-1.37.23-.17.74-.61,1.03-1.37.34-.88-.01-1.6.1-1.93s1.75-2.19,1.86-2.78,0-5.13,0-5.84-.94-1.53-1.41-2.29c-2.39-1.29-6.27-2.81-10.31-1.68-.31.09-.61.18-.9.29Z"/>
    <path class="cls-6" d="M39.2,53.94c.11.35.3.85.67,1.37.44.63.87.93,1.72,1.62.45.36,1.67,1.31,1.81,1.57s0,1.06-.1,1.72c-.14.87-.29,1.72-.64,2.11s-.42,1.65-1.08,2.7c-.49.78-1.37,1.44-1.47,1.72s-1.04,1.54-.74,1.65,3.14.55,3.14.55c.03-.01.67-.31.74-.98.04-.43-.52-.77-.25-.83s.91-.86,1.18-1.86c.16-.58-.24-.75.1-1.42.1-.19.19-.32.22-.36.34-.44.82-1.45,1.26-2.09.29-.43.78-1,1.6-1.57-.48-.82-1.01-1.36-1.37-1.72-1.04-1.01-1.51-.82-3.19-2.06-.89-.66-1.16-1-2.06-1.47-.62-.33-1.17-.52-1.54-.63Z"/>
  </g>
</svg>